<?xml version="1.0" encoding="utf-8"?>
<!-- Generator: Adobe Illustrator 25.2.3, SVG Export Plug-In . SVG Version: 6.00 Build 0)  -->
<svg version="1.1" id="Capa_1" xmlns="http://www.w3.org/2000/svg" xmlns:xlink="http://www.w3.org/1999/xlink" x="0px" y="0px"
	 viewBox="0 0 1024 640" style="enable-background:new 0 0 1024 640;" xml:space="preserve">
<style type="text/css">
	.st0{fill:none;stroke:#974140;stroke-width:2;}
	.st1{fill:none;stroke:#9F6D28;stroke-width:2;}
	.st2{fill:none;stroke:#234E56;stroke-width:2;}
	.st3{fill:none;stroke:#54724B;stroke-width:2;}
	.st4{fill:none;stroke:#2D7C71;stroke-width:2;}
	.st5{fill:#04051D;}
	.st6{fill:#002447;}
	.st7{fill:#004F6F;}
	.st8{fill:#FFDC8A;}
	.st9{fill:#C56823;}
	.st10{fill:#FF9200;}
</style>
<g>
	<path vector-effect="non-scaling-stroke" class="st0" d="M467.1,246.2c9.7-3.4,19.4-7,29.1-10.6c0.6-0.2,1.2-0.6,1.7-0.9
		c0.8-0.6,1.3-1.1,1.4-1.4c18.4-30.8,36.3-61.9,53.7-93.3c0.8-1.4,2.3-3.6,3.2-5.6c1.3-2.7,0.2-4-1.1-6.3
		c-9.5-16.1-19-32.3-28.5-48.4c-1.9-3.1-5.4-8.8-7.6-10.1c-6-3.6-8,0.4-11.4,5.1c-1.2,1.6-2.3,3.3-3.3,5.1
		c-37.6,64.3-75.5,128.6-113.9,192.8c-0.1,0.2-0.1,0.4,0.1,0.5c0.1,0.1,0.2,0.1,0.3,0c1.6-0.5,3.3-1,5-1.6
		C419.5,262.9,443.3,254.5,467.1,246.2"/>
	<path vector-effect="non-scaling-stroke" class="st1" d="M568.5,152c-14.9,24.6-29.9,49.5-43.4,75c-0.4,0.7-0.4,1.5,0,2.2
		l43.7,82.3c0.2,0.4,0.6,0.5,1,0.3c0.1-0.1,0.2-0.1,0.3-0.2c0.9-1.3,1.7-2.7,2.6-4.2c14.4-24.8,28.6-49.7,42.7-74.7
		c0.5-0.8,0.4-1.8,0-2.6L569.8,152c-0.2-0.4-0.7-0.5-1-0.3C568.6,151.8,568.5,151.9,568.5,152"/>
	<path vector-effect="non-scaling-stroke" class="st2" d="M718.9,415.9c-23-46.4-48.9-92.1-74.2-136.3c-5.3-9.3-11-18.4-16.9-27.4
		c-0.5-0.7-1.5-0.9-2.2-0.4c-0.2,0.1-0.4,0.3-0.5,0.5c-13.6,22.6-26.9,45.5-40,68.6c-1.6,2.9-1.3,4,0.3,6.7
		c13.7,24.3,27.5,48.6,41.3,73c3.9,7,8.1,13.8,12.6,20.4c2.7,4,5.9,5.3,11,5.4c24.3,0.3,48.6,0.4,72.8,0.2c0.4,0,0.6-0.3,0.6-0.6
		c0-0.1,0-0.1,0-0.2C722.4,422.2,720.2,418.7,718.9,415.9"/>
	<path vector-effect="non-scaling-stroke" class="st3" d="M427.5,360.1c-0.3,0-0.5-0.2-0.5-0.5c0-0.1,0-0.2,0.1-0.3l63.5-101.2
		c0.2-0.3,0.1-0.7-0.2-0.8c-0.2-0.1-0.4-0.1-0.5-0.1c-19.9,6.8-40.2,13.1-59.8,20.9c-17.7,7-35.5,13.7-53.2,20
		c-0.6,0.2-1.2,0.7-1.5,1.3c-5.2,9.5-10.7,19-16.4,28.4c-19.4,32.1-39.1,64.2-57,97.1c-0.2,0.4-0.1,0.8,0.3,1
		c0.1,0.1,0.2,0.1,0.4,0.1l209.2,0.9c0.5,0,0.8-0.2,0.8-0.7c0.4-2.2,0-4.5-1.2-6.8c-10.3-19.3-20.7-38.8-31.2-58.3
		c-0.4-0.8-1.3-1.3-2.2-1.3L427.5,360.1"/>
	<path vector-effect="non-scaling-stroke" class="st4" d="M525.4,415.9c-1.6,2.9-3.2,6-4.7,9.4c-0.2,0.4,0,1,0.4,1.2
		c0.1,0.1,0.2,0.1,0.4,0.1l99.4,0.2c0.4,0,0.7-0.3,0.7-0.7c0-0.1,0-0.2,0-0.3c-0.9-2.4-1.9-4.6-3-6.6
		c-14.7-27.4-30.2-54.2-46.4-80.6c-0.2-0.3-0.6-0.4-0.9-0.2c-0.1,0.1-0.2,0.1-0.2,0.2C555.2,363.8,540,389.6,525.4,415.9"/>
	<path vector-effect="non-scaling-stroke" class="st1" d="M543.8,347c0.2-0.3,0-0.7-0.3-0.9c-0.1,0-0.2-0.1-0.3-0.1l-49-0.4
		c-0.4,0-0.6,0.3-0.7,0.6c0,0.1,0,0.2,0.1,0.3l25.9,46.9c0.2,0.3,0.6,0.4,0.9,0.2c0.1-0.1,0.2-0.2,0.3-0.3L543.8,347"/>
	<path vector-effect="non-scaling-stroke" class="st2" d="M241.4,572.8c1.7,5.7,5.3,8.9,10.6,9.9c6.8,1.2,15.1,1,18.3-6.1
		c2-4.5,0.7-9.3-1.5-13.6c-10-19.4-21.3-42.1-33.7-68c-1-2.2-4.8-9.4-7.7-10.7c-1.1-0.5-2.3-0.8-3.8-0.9c-10-0.8-16.6,3.1-19.8,11.8
		c-2.2,5.9-5.8,14.1-10.7,24.5c-6.2,13.1-12.5,26.2-19,39.1c-2.2,4.4-5.9,12.4-3.7,17.1c5,10.5,19.1,8.2,25.9,1.8
		c1.9-1.8,3-4.7,4.2-7c0.5-1,1.6-1.6,2.7-1.6l35.7,0.2c0.2,0,0.5,0.1,0.6,0.2C240.4,570.5,241,571.6,241.4,572.8"/>
	<path vector-effect="non-scaling-stroke" class="st2" d="M823.6,541.7c-0.4,8.2-0.4,16.5-0.1,24.8c0.3,7.5,2,13.6,9,16.5
		c8.3,3.4,21.1-1.3,21.1-11.8c0-22.8-0.1-45.6-0.2-68.4c0-8.5-2.8-15.3-11.6-18c-9.1-2.9-16.8,2.2-21.5,10.2
		c-8.1,14.1-16,28.3-23.7,42.8c-0.1,0.3-0.5,0.4-0.8,0.2c-0.1-0.1-0.2-0.2-0.3-0.3c-7.2-14.9-14.8-29.6-22.7-44.3
		c-1.9-3.5-3.4-5.7-4.5-6.5c-5.5-4.1-18.7-3.8-23.8,1c-3.4,3.2-4.1,6.6-4.1,11.7c0,24-0.1,48-0.2,72c0,2.3,0.6,4.1,1.8,5.3
		c5.4,5.5,11.8,7.2,19.3,5.1c7.1-2,7.6-11.2,7.6-17.4c0-8.4-0.2-16.8-0.6-25.2c-0.1-1-0.1-1.6,0-1.8c0.5-1.5,1.1-1.6,1.9-0.2
		c6.8,12.5,13.1,25.1,19,37.9c1.8,4,5.8,4.6,9.3,2.2c2.7-1.9,5-4.4,6.7-7.3c5.6-9.7,11.2-19.3,17-28.9c0.2-0.3,0.6-0.4,1-0.2
		C823.5,541.2,823.6,541.5,823.6,541.7"/>
	<path vector-effect="non-scaling-stroke" class="st2" d="M587.3,500.4c-0.2-6.6-4.7-13.5-11.3-15.1c-7.2-1.7-14.4,3.3-16.7,10.1
		c-0.7,2.2-1,5.8-0.9,10.8c0.7,22.7,1.2,45.5,1.4,68.3c0,3,0.8,5.6,3.8,7c7.9,3.5,24.3,3.2,24.3-9
		C588.1,545.1,587.9,521,587.3,500.4"/>
	<path vector-effect="non-scaling-stroke" class="st2" d="M468.1,485.6c-9.9-0.5-36.9-3.1-40.2,8.9c-0.3,1.1-0.5,3.2-0.4,6.1
		c0.2,23.1,0.1,46.3-0.3,69.4c-0.1,3.3,0.4,5.8,1.3,7.3c3.4,5.8,13.5,7,19.3,6.8c10.5-0.4,21-1.2,31.5-2.2
		c23.8-2.4,42.2-18.6,44.3-43.1C526.5,502.6,500,487.1,468.1,485.6"/>
	<path vector-effect="non-scaling-stroke" class="st2" d="M372.6,548.9c5.4-3.9,12.4-8.6,15.8-13.4c7.2-10.2,4.4-24.4-2.1-34.2
		c-4-6.1-9.6-10.1-16.8-12c-15-4-30.4-3.4-45.7-3.2c-12.1,0.1-18.7,2.3-19,15.1c-0.6,23.3-0.6,46.7-0.1,70
		c0.2,10.1,11.6,14.1,19.9,12.2c12.2-2.9,9.6-12.9,10-22.3c0.1-1.9,0.8-3,2.1-3.4c17.2-4.2,19.7,23,33.9,25.3
		c5.1,0.8,18.7,1.5,20.4-5.6c1.2-4.7-8.5-17.1-12.1-20.9c-1.8-1.9-4.3-3.9-6.4-5.9c-0.4-0.4-0.4-1.1,0-1.6
		C372.5,549,372.5,548.9,372.6,548.9"/>
	<path vector-effect="non-scaling-stroke" class="st2" d="M655.4,557.4l-0.1-9.6c0-0.9,0.7-1.7,1.7-1.7c0,0,0,0,0.1,0
		c11.1,0.1,22.2,0.1,33.2,0c6-0.1,10.4-0.6,11.4-7.1c0.7-4.4-0.1-10.8-4.5-13.3c-1.3-0.7-3.6-1.1-6.9-1.2c-10.5-0.3-21-0.4-31.6-0.5
		c-1.4,0-2.2,0-2.2,0c-0.9-0.2-1.5-0.8-1.6-2c-0.4-3.1-0.4-6.1,0-9c0.1-0.7,0.7-1.2,1.3-1.1c9.4,0.2,18.9,0.3,28.4,0.3
		c7.3,0,16.4-1,18.7-9.5c1.2-4.3,0-11.8-4.1-14.7c-1.4-1-2.6-1.4-3.8-1.4c-16.8-0.1-33.5-0.4-50.2-0.8c-8.4-0.2-20.8-0.6-20.3,11.1
		c0.5,10.3,0.5,32.1,0,65.3c-0.1,10.2-0.4,21.7,13.2,21.3c16.3-0.5,32.5-0.7,48.8-0.5c7.4,0.1,13.2,0.8,16.6-5.1
		c3.7-6.5,1.6-15.3-5.8-18.1c-1.8-0.7-4.8-1-8.9-1c-10.6,0-21.3,0-32.1-0.1C655.9,558.6,655.4,558.1,655.4,557.4"/>
	<path vector-effect="non-scaling-stroke" class="st2" d="M208.1,546.4c-0.1,0.1,0,0.3,0.1,0.4h0.1l20.4-0.4c0.2,0,0.3-0.1,0.3-0.3
		V546l-8.4-24.7c0-0.2-0.2-0.2-0.4-0.2c-0.1,0-0.2,0.1-0.2,0.2L208.1,546.4"/>
	<path vector-effect="non-scaling-stroke" class="st2" d="M459,558.9c14.9,1,30.4-2.9,32.3-20.5c1.2-11.7-2.6-21.6-14.8-24.9
		c-5.7-1.5-11.4-1.7-17.2-0.5c-0.3,0.1-0.6,0.3-0.8,0.5c-0.5,0.7-0.7,1.6-0.7,2.5c-0.1,13.7-0.2,27.5-0.1,41.6
		C457.7,558.3,458.3,558.8,459,558.9"/>
	<path vector-effect="non-scaling-stroke" class="st2" d="M354,532.6c8.2-3,13.5-16.1,2.9-20.7c-5.7-2.5-21.5-6.6-21.7,4.1
		c-0.1,5.2-0.1,10.8,0.1,16.5c0,0.7,0.5,1.3,1.2,1.4C342.4,535.1,348.2,534.7,354,532.6"/>
</g>
<path class="st5" d="M0,0h1024v640H0V0z M467.1,246.2c9.7-3.4,19.4-7,29.1-10.6c0.6-0.2,1.2-0.6,1.7-0.9c0.8-0.6,1.3-1.1,1.4-1.4
	c18.4-30.8,36.3-61.9,53.7-93.3c0.8-1.4,2.3-3.6,3.2-5.6c1.3-2.7,0.2-4-1.1-6.3c-9.5-16.1-19-32.3-28.5-48.4
	c-1.9-3.1-5.4-8.8-7.6-10.1c-6-3.6-8,0.4-11.4,5.1c-1.2,1.6-2.3,3.3-3.3,5.1c-37.6,64.3-75.5,128.6-113.9,192.8
	c-0.1,0.2-0.1,0.4,0.1,0.5c0.1,0.1,0.2,0.1,0.3,0c1.6-0.5,3.3-1,5-1.6C419.5,262.9,443.3,254.5,467.1,246.2z M568.5,152
	c-14.9,24.6-29.9,49.5-43.4,75c-0.4,0.7-0.4,1.5,0,2.2l43.7,82.3c0.2,0.4,0.6,0.5,1,0.3c0.1-0.1,0.2-0.1,0.3-0.2
	c0.9-1.3,1.7-2.7,2.6-4.2c14.4-24.8,28.6-49.7,42.7-74.7c0.5-0.8,0.4-1.8,0-2.6L569.8,152c-0.2-0.4-0.7-0.5-1-0.3
	C568.6,151.8,568.5,151.9,568.5,152z M718.9,415.9c-23-46.4-48.9-92.1-74.2-136.3c-5.3-9.3-11-18.4-16.9-27.4
	c-0.5-0.7-1.5-0.9-2.2-0.4c-0.2,0.1-0.4,0.3-0.5,0.5c-13.6,22.6-26.9,45.5-40,68.6c-1.6,2.9-1.3,4,0.3,6.7
	c13.7,24.3,27.5,48.6,41.3,73c3.9,7,8.1,13.8,12.6,20.4c2.7,4,5.9,5.3,11,5.4c24.3,0.3,48.6,0.4,72.8,0.2c0.4,0,0.6-0.3,0.6-0.6
	c0-0.1,0-0.1,0-0.2C722.4,422.2,720.2,418.7,718.9,415.9z M427.5,360.1c-0.3,0-0.5-0.2-0.5-0.5c0-0.1,0-0.2,0.1-0.3l63.5-101.2
	c0.2-0.3,0.1-0.7-0.2-0.8c-0.2-0.1-0.4-0.1-0.5-0.1c-19.9,6.8-40.2,13.1-59.8,20.9c-17.7,7-35.5,13.7-53.2,20
	c-0.6,0.2-1.2,0.7-1.5,1.3c-5.2,9.5-10.7,19-16.4,28.4c-19.4,32.1-39.1,64.2-57,97.1c-0.2,0.4-0.1,0.8,0.3,1
	c0.1,0.1,0.2,0.1,0.4,0.1l209.2,0.9c0.5,0,0.8-0.2,0.8-0.7c0.4-2.2,0-4.5-1.2-6.8c-10.3-19.3-20.7-38.8-31.2-58.3
	c-0.4-0.8-1.3-1.3-2.2-1.3L427.5,360.1z M525.4,415.9c-1.6,2.9-3.2,6-4.7,9.4c-0.2,0.4,0,1,0.4,1.2c0.1,0.1,0.2,0.1,0.4,0.1
	l99.4,0.2c0.4,0,0.7-0.3,0.7-0.7c0-0.1,0-0.2,0-0.3c-0.9-2.4-1.9-4.6-3-6.6c-14.7-27.4-30.2-54.2-46.4-80.6
	c-0.2-0.3-0.6-0.4-0.9-0.2c-0.1,0.1-0.2,0.1-0.2,0.2C555.2,363.8,540,389.6,525.4,415.9z M543.8,347c0.2-0.3,0-0.7-0.3-0.9
	c-0.1,0-0.2-0.1-0.3-0.1l-49-0.4c-0.4,0-0.6,0.3-0.7,0.6c0,0.1,0,0.2,0.1,0.3l25.9,46.9c0.2,0.3,0.6,0.4,0.9,0.2
	c0.1-0.1,0.2-0.2,0.3-0.3L543.8,347z M241.4,572.8c1.7,5.7,5.3,8.9,10.6,9.9c6.8,1.2,15.1,1,18.3-6.1c2-4.5,0.7-9.3-1.5-13.6
	c-10-19.4-21.3-42.1-33.7-68c-1-2.2-4.8-9.4-7.7-10.7c-1.1-0.5-2.3-0.8-3.8-0.9c-10-0.8-16.6,3.1-19.8,11.8
	c-2.2,5.9-5.8,14.1-10.7,24.5c-6.2,13.1-12.5,26.2-19,39.1c-2.2,4.4-5.9,12.4-3.7,17.1c5,10.5,19.1,8.2,25.9,1.8
	c1.9-1.8,3-4.7,4.2-7c0.5-1,1.6-1.6,2.7-1.6l35.7,0.2c0.2,0,0.5,0.1,0.6,0.2C240.4,570.5,241,571.6,241.4,572.8z M823.6,541.7
	c-0.4,8.2-0.4,16.5-0.1,24.8c0.3,7.5,2,13.6,9,16.5c8.3,3.4,21.1-1.3,21.1-11.8c0-22.8-0.1-45.6-0.2-68.4c0-8.5-2.8-15.3-11.6-18
	c-9.1-2.9-16.8,2.2-21.5,10.2c-8.1,14.1-16,28.3-23.7,42.8c-0.1,0.3-0.5,0.4-0.8,0.2c-0.1-0.1-0.2-0.2-0.3-0.3
	c-7.2-14.9-14.8-29.6-22.7-44.3c-1.9-3.5-3.4-5.7-4.5-6.5c-5.5-4.1-18.7-3.8-23.8,1c-3.4,3.2-4.1,6.6-4.1,11.7c0,24-0.1,48-0.2,72
	c0,2.3,0.6,4.1,1.8,5.3c5.4,5.5,11.8,7.2,19.3,5.1c7.1-2,7.6-11.2,7.6-17.4c0-8.4-0.2-16.8-0.6-25.2c-0.1-1-0.1-1.6,0-1.8
	c0.5-1.5,1.1-1.6,1.9-0.2c6.8,12.5,13.1,25.1,19,37.9c1.8,4,5.8,4.6,9.3,2.2c2.7-1.9,5-4.4,6.7-7.3c5.6-9.7,11.2-19.3,17-28.9
	c0.2-0.3,0.6-0.4,1-0.2C823.5,541.2,823.6,541.5,823.6,541.7z M587.3,500.4c-0.2-6.6-4.7-13.5-11.3-15.1
	c-7.2-1.7-14.4,3.3-16.7,10.1c-0.7,2.2-1,5.8-0.9,10.8c0.7,22.7,1.2,45.5,1.4,68.3c0,3,0.8,5.6,3.8,7c7.9,3.5,24.3,3.2,24.3-9
	C588.1,545.1,587.9,521,587.3,500.4z M468.1,485.6c-9.9-0.5-36.9-3.1-40.2,8.9c-0.3,1.1-0.5,3.2-0.4,6.1c0.2,23.1,0.1,46.3-0.3,69.4
	c-0.1,3.3,0.4,5.8,1.3,7.3c3.4,5.8,13.5,7,19.3,6.8c10.5-0.4,21-1.2,31.5-2.2c23.8-2.4,42.2-18.6,44.3-43.1
	C526.5,502.6,500,487.1,468.1,485.6z M372.6,548.9c5.4-3.9,12.4-8.6,15.8-13.4c7.2-10.2,4.4-24.4-2.1-34.2c-4-6.1-9.6-10.1-16.8-12
	c-15-4-30.4-3.4-45.7-3.2c-12.1,0.1-18.7,2.3-19,15.1c-0.6,23.3-0.6,46.7-0.1,70c0.2,10.1,11.6,14.1,19.9,12.2
	c12.2-2.9,9.6-12.9,10-22.3c0.1-1.9,0.8-3,2.1-3.4c17.2-4.2,19.7,23,33.9,25.3c5.1,0.8,18.7,1.5,20.4-5.6
	c1.2-4.7-8.5-17.1-12.1-20.9c-1.8-1.9-4.3-3.9-6.4-5.9c-0.4-0.4-0.4-1.1,0-1.6C372.5,549,372.5,548.9,372.6,548.9z M655.4,557.4
	l-0.1-9.6c0-0.9,0.7-1.7,1.7-1.7c0,0,0,0,0.1,0c11.1,0.1,22.2,0.1,33.2,0c6-0.1,10.4-0.6,11.4-7.1c0.7-4.4-0.1-10.8-4.5-13.3
	c-1.3-0.7-3.6-1.1-6.9-1.2c-10.5-0.3-21-0.4-31.6-0.5c-1.4,0-2.2,0-2.2,0c-0.9-0.2-1.5-0.8-1.6-2c-0.4-3.1-0.4-6.1,0-9
	c0.1-0.7,0.7-1.2,1.3-1.1c9.4,0.2,18.9,0.3,28.4,0.3c7.3,0,16.4-1,18.7-9.5c1.2-4.3,0-11.8-4.1-14.7c-1.4-1-2.6-1.4-3.8-1.4
	c-16.8-0.1-33.5-0.4-50.2-0.8c-8.4-0.2-20.8-0.6-20.3,11.1c0.5,10.3,0.5,32.1,0,65.3c-0.1,10.2-0.4,21.7,13.2,21.3
	c16.3-0.5,32.5-0.7,48.8-0.5c7.4,0.1,13.2,0.8,16.6-5.1c3.7-6.5,1.6-15.3-5.8-18.1c-1.8-0.7-4.8-1-8.9-1c-10.6,0-21.3,0-32.1-0.1
	C655.9,558.6,655.4,558.1,655.4,557.4z"/>
<path class="st6" d="M467.1,246.2c-23.8,8.4-47.6,16.8-71.3,25.2c-1.7,0.6-3.4,1.1-5,1.6c-0.2,0.1-0.4,0-0.4-0.2c0-0.1,0-0.2,0-0.3
	c38.3-64.2,76.3-128.4,113.9-192.8c1-1.8,2.1-3.5,3.3-5.1c3.4-4.7,5.4-8.7,11.4-5.1c2.2,1.3,5.7,6.9,7.6,10.1
	c9.5,16.2,19,32.3,28.5,48.4c1.3,2.3,2.4,3.6,1.1,6.3c-0.9,2-2.4,4.2-3.2,5.6c-17.4,31.4-35.3,62.5-53.7,93.3
	c-0.2,0.3-0.6,0.7-1.4,1.4c-0.5,0.4-1,0.7-1.7,0.9C486.5,239.2,476.8,242.8,467.1,246.2z"/>
<path class="st7" d="M525,227c13.5-25.5,28.5-50.4,43.4-75c0.2-0.4,0.7-0.5,1-0.3c0.1,0.1,0.2,0.2,0.3,0.3l45.5,78.1
	c0.5,0.8,0.5,1.8,0,2.6c-14.1,25-28.3,49.8-42.7,74.7c-0.9,1.5-1.7,2.9-2.6,4.2c-0.2,0.3-0.7,0.4-1.1,0.2c-0.1-0.1-0.2-0.2-0.2-0.3
	L525,229.2C524.7,228.5,524.7,227.7,525,227z"/>
<path class="st8" d="M644.6,279.6c25.3,44.1,51.3,89.9,74.2,136.3c1.4,2.8,3.5,6.4,4.7,10c0.1,0.3-0.1,0.7-0.4,0.8
	c-0.1,0-0.1,0-0.2,0c-24.2,0.2-48.4,0.1-72.8-0.2c-5.1-0.1-8.2-1.4-11-5.4c-4.5-6.6-8.7-13.4-12.6-20.4
	c-13.8-24.3-27.5-48.6-41.3-73c-1.5-2.7-1.9-3.8-0.3-6.7c13.1-23.1,26.5-46,40-68.6c0.4-0.7,1.4-1,2.2-0.5c0.2,0.1,0.4,0.3,0.5,0.5
	C633.7,261.2,639.3,270.3,644.6,279.6z"/>
<path class="st9" d="M427.5,360.1l50.6-0.3c0.9,0,1.7,0.5,2.2,1.3c10.5,19.5,20.9,38.9,31.2,58.3c1.2,2.3,1.6,4.6,1.2,6.8
	c-0.1,0.5-0.4,0.7-0.8,0.7L302.5,426c-0.4,0-0.7-0.3-0.7-0.7c0-0.1,0-0.3,0.1-0.4c17.9-32.9,37.6-65,57-97.1
	c5.7-9.4,11.2-18.9,16.4-28.4c0.3-0.6,0.9-1.1,1.5-1.3c17.7-6.3,35.5-12.9,53.2-20c19.6-7.8,39.9-14.1,59.8-20.9
	c0.3-0.1,0.7,0.1,0.8,0.4c0.1,0.2,0,0.4-0.1,0.5L427,359.4c-0.1,0.2-0.1,0.5,0.2,0.7C427.3,360.1,427.4,360.1,427.5,360.1z"/>
<path class="st10" d="M525.4,415.9c14.5-26.3,29.8-52.1,45.7-77.4c0.2-0.3,0.6-0.4,1-0.2c0.1,0.1,0.2,0.1,0.2,0.2
	c16.2,26.4,31.6,53.3,46.4,80.6c1.1,2,2.1,4.2,3,6.6c0.1,0.4,0,0.8-0.4,0.9c-0.1,0-0.2,0-0.3,0l-99.4-0.2c-0.5,0-0.9-0.4-0.9-0.9
	c0-0.1,0-0.3,0.1-0.4C522.3,422,523.8,418.8,525.4,415.9z"/>
<path class="st10" d="M543.8,347l-23.1,46.5c-0.2,0.3-0.5,0.4-0.9,0.3c-0.1-0.1-0.2-0.1-0.3-0.3l-25.9-46.9
	c-0.2-0.3-0.1-0.7,0.2-0.9c0.1-0.1,0.2-0.1,0.3-0.1l49,0.4c0.4,0,0.6,0.3,0.6,0.7C543.9,346.8,543.8,346.9,543.8,347z"/>
<path class="st6" d="M241.4,572.8c-0.4-1.2-1-2.3-1.9-3.2c-0.2-0.2-0.4-0.3-0.6-0.2l-35.7-0.2c-1.1,0-2.2,0.6-2.7,1.6
	c-1.3,2.3-2.4,5.2-4.2,7c-6.8,6.4-20.9,8.7-25.9-1.8c-2.2-4.7,1.5-12.7,3.7-17.1c6.5-13,12.8-26,19-39.1
	c4.9-10.4,8.5-18.6,10.7-24.5c3.3-8.7,9.9-12.6,19.8-11.8c1.5,0.1,2.8,0.4,3.8,0.9c2.8,1.3,6.6,8.6,7.7,10.7
	c12.5,25.9,23.7,48.6,33.7,68c2.2,4.3,3.5,9,1.5,13.6c-3.1,7.1-11.5,7.3-18.3,6.1C246.6,581.8,243.1,578.5,241.4,572.8z
	 M208.1,546.4c-0.1,0.1,0,0.3,0.1,0.4h0.1l20.4-0.4c0.2,0,0.3-0.1,0.3-0.3V546l-8.4-24.7c0-0.2-0.2-0.2-0.4-0.2
	c-0.1,0-0.2,0.1-0.2,0.2L208.1,546.4z"/>
<path class="st6" d="M823.6,541.7c0-0.4-0.3-0.7-0.7-0.7c-0.3,0-0.5,0.1-0.6,0.3c-5.7,9.6-11.4,19.3-17,28.9c-1.7,3-4,5.4-6.7,7.3
	c-3.5,2.5-7.5,1.8-9.3-2.2c-5.9-12.8-12.2-25.4-19-37.9c-0.8-1.4-1.4-1.4-1.9,0.2c-0.1,0.2-0.1,0.8,0,1.8c0.5,8.4,0.7,16.8,0.6,25.2
	c0,6.2-0.6,15.4-7.6,17.4c-7.5,2.1-13.9,0.4-19.3-5.1c-1.2-1.3-1.8-3-1.8-5.3c0.1-24,0.2-48,0.2-72c0-5.1,0.7-8.5,4.1-11.7
	c5-4.8,18.2-5.1,23.8-1c1.1,0.8,2.6,3,4.5,6.5c7.9,14.7,15.4,29.5,22.7,44.3c0.1,0.3,0.5,0.4,0.8,0.3c0.1-0.1,0.2-0.1,0.3-0.3
	c7.7-14.5,15.6-28.8,23.7-42.8c4.6-8.1,12.4-13.1,21.5-10.2c8.7,2.7,11.5,9.5,11.6,18c0.1,22.8,0.2,45.6,0.2,68.4
	c0,10.4-12.8,15.2-21.1,11.8c-7-2.9-8.7-8.9-9-16.5C823.2,558.2,823.2,549.9,823.6,541.7z"/>
<path class="st10" d="M587.3,500.4c0.6,20.7,0.8,44.7,0.7,72.1c-0.1,12.2-16.5,12.4-24.3,9c-3.1-1.4-3.8-3.9-3.8-7
	c-0.2-22.8-0.7-45.5-1.4-68.3c-0.2-5.1,0.1-8.7,0.9-10.8c2.3-6.9,9.5-11.9,16.7-10.1C582.6,486.9,587.1,493.8,587.3,500.4z"/>
<path class="st10" d="M468.1,485.6c31.9,1.5,58.4,17,55.4,53.1c-2,24.5-20.4,40.7-44.3,43.1c-10.5,1-21,1.8-31.5,2.2
	c-5.8,0.2-15.9-1-19.3-6.8c-0.9-1.5-1.3-3.9-1.3-7.3c0.4-23.1,0.5-46.3,0.3-69.4c0-2.9,0.1-5,0.4-6.1
	C431.2,482.6,458.3,485.2,468.1,485.6z M459,558.9c14.9,1,30.4-2.9,32.3-20.5c1.2-11.7-2.6-21.6-14.8-24.9
	c-5.7-1.5-11.4-1.7-17.2-0.5c-0.3,0.1-0.6,0.3-0.8,0.5c-0.5,0.7-0.7,1.6-0.7,2.5c-0.1,13.7-0.2,27.5-0.1,41.6
	C457.7,558.3,458.3,558.8,459,558.9z"/>
<path class="st9" d="M372.6,548.9c-0.5,0.4-0.6,1-0.3,1.5l0.1,0.1c2,2.1,4.6,4,6.4,5.9c3.6,3.8,13.3,16.2,12.1,20.9
	c-1.8,7-15.4,6.4-20.4,5.6c-14.2-2.3-16.7-29.5-33.9-25.3c-1.3,0.3-2,1.4-2.1,3.4c-0.5,9.4,2.1,19.4-10,22.3
	c-8.2,2-19.7-2.1-19.9-12.2c-0.5-23.3-0.5-46.7,0.1-70c0.3-12.8,6.9-15,19-15.1c15.4-0.2,30.7-0.8,45.7,3.2
	c7.1,1.9,12.7,5.9,16.8,12c6.5,9.8,9.3,24,2.1,34.2C385,540.3,377.9,545,372.6,548.9z M354,532.6c8.2-3,13.5-16.1,2.9-20.7
	c-5.7-2.5-21.5-6.6-21.7,4.1c-0.1,5.2-0.1,10.8,0.1,16.5c0,0.7,0.5,1.3,1.2,1.4C342.4,535.1,348.2,534.7,354,532.6z"/>
<path class="st8" d="M655.4,557.4c0,0.7,0.6,1.2,1.2,1.2c10.8,0.1,21.5,0.1,32.1,0.1c4.1,0,7.1,0.3,8.9,1c7.5,2.8,9.6,11.6,5.8,18.1
	c-3.4,5.9-9.2,5.2-16.6,5.1c-16.3-0.2-32.6,0-48.8,0.5c-13.6,0.4-13.4-11.1-13.2-21.3c0.5-33.2,0.4-54.9,0-65.3
	c-0.5-11.7,11.8-11.3,20.3-11.1c16.7,0.4,33.5,0.6,50.2,0.8c1.2,0,2.5,0.5,3.8,1.4c4.2,2.9,5.3,10.4,4.1,14.7
	c-2.3,8.4-11.4,9.5-18.7,9.5c-9.5,0-19-0.1-28.4-0.3c-0.7,0-1.2,0.5-1.3,1.1c-0.4,2.9-0.4,5.9,0,9c0.1,1.1,0.7,1.8,1.6,2
	c0.1,0,0.8,0,2.2,0c10.5,0.1,21,0.2,31.6,0.5c3.3,0.1,5.6,0.5,6.9,1.2c4.4,2.5,5.2,8.9,4.5,13.3c-1.1,6.5-5.4,7-11.4,7.1
	c-11.1,0.1-22.1,0.1-33.2,0c-0.9,0-1.7,0.7-1.7,1.7c0,0,0,0,0,0.1L655.4,557.4z"/>
<path class="st5" d="M354,532.6c-5.8,2.1-11.7,2.5-17.5,1.3c-0.7-0.1-1.2-0.7-1.2-1.4c-0.2-5.8-0.2-11.3-0.1-16.5
	c0.2-10.8,16-6.6,21.7-4.1C367.5,516.5,362.2,529.6,354,532.6z"/>
<path class="st5" d="M491.3,538.4c-1.9,17.6-17.4,21.5-32.3,20.5c-0.7,0-1.2-0.6-1.2-1.3c-0.1-14-0.1-27.9,0.1-41.6
	c0-0.9,0.2-1.8,0.7-2.5c0.2-0.3,0.4-0.5,0.8-0.5c5.8-1.2,11.5-1,17.2,0.5C488.6,516.8,492.5,526.7,491.3,538.4z"/>
<path class="st5" d="M208.1,546.4l12-25.1c0.1-0.2,0.2-0.2,0.4-0.1c0.1,0,0.1,0.1,0.2,0.2L229,546c0.1,0.2,0,0.3-0.2,0.4h-0.1
	l-20.4,0.4c-0.2,0-0.3-0.1-0.3-0.3C208,546.5,208.1,546.4,208.1,546.4z"/>
</svg>
